<?xml version="1.0" encoding="utf-8" standalone="no"?>
<!DOCTYPE svg PUBLIC "-//W3C//DTD SVG 1.1//EN"
  "http://www.w3.org/Graphics/SVG/1.1/DTD/svg11.dtd">
<!-- Created with matplotlib (https://matplotlib.org/) -->
<svg height="504pt" version="1.1" viewBox="0 0 576 504" width="576pt" xmlns="http://www.w3.org/2000/svg" xmlns:xlink="http://www.w3.org/1999/xlink">
 <defs>
  <style type="text/css">
*{stroke-linecap:butt;stroke-linejoin:round;}
  </style>
 </defs>
 <g id="figure_1">
  <g id="patch_1">
   <path d="M 0 504 
L 576 504 
L 576 0 
L 0 0 
z
" style="fill:#ffffff;"/>
  </g>
  <g id="axes_1">
   <g id="patch_2">
    <path d="M 72 433.08 
L 518.4 433.08 
L 518.4 75.96 
L 72 75.96 
z
" style="fill:#ffffff;"/>
   </g>
   <g id="PolyCollection_1">
    <path clip-path="url(#pcc9e64ecf3)" d="M 268.416 254.52 
L 268.40701 255.086534 
L 268.38005 255.652498 
L 268.335147 256.217321 
L 268.272345 256.780435 
L 268.191709 257.341273 
L 268.093319 257.89927 
L 267.977274 258.453865 
L 267.843692 259.004498 
L 267.692707 259.550617 
L 267.52447 260.091669 
L 267.339151 260.627112 
L 267.136938 261.156405 
L 266.918033 261.679016 
L 266.682656 262.194418 
L 266.431046 262.702093 
L 266.163454 263.201529 
L 265.880152 263.692224 
L 265.581423 264.173682 
L 265.267569 264.645421 
L 264.938906 265.106964 
L 264.595764 265.557847 
L 264.23849 265.997616 
L 263.867442 266.425827 
L 263.482995 266.842051 
L 263.085536 267.245867 
L 262.675464 267.63687 
L 262.253193 268.014664 
L 261.819148 268.378871 
L 261.373767 268.729123 
L 260.917496 269.065068 
L 260.450797 269.386367 
L 259.974138 269.692697 
L 259.488 269.98375 
L 258.992872 270.259231 
L 258.489253 270.518865 
L 257.97765 270.762389 
L 257.458579 270.989558 
L 256.93256 271.200144 
L 256.400126 271.393935 
L 255.86181 271.570734 
L 255.318156 271.730366 
L 254.769712 271.872667 
L 254.217028 271.997496 
L 253.660662 272.104727 
L 253.101174 272.194252 
L 252.539127 272.26598 
L 251.975087 272.319839 
L 251.409623 272.355775 
L 250.843303 272.373752 
L 250.276697 272.373752 
L 249.710377 272.355775 
L 249.144913 272.319839 
L 248.580873 272.26598 
L 248.018826 272.194252 
L 247.459338 272.104727 
L 246.902972 271.997496 
L 246.350288 271.872667 
L 245.801844 271.730366 
L 245.25819 271.570734 
L 244.719874 271.393935 
L 244.18744 271.200144 
L 243.661421 270.989558 
L 243.14235 270.762389 
L 242.630747 270.518865 
L 242.127128 270.259231 
L 241.632 269.98375 
L 241.145862 269.692697 
L 240.669203 269.386367 
L 240.202504 269.065068 
L 239.746233 268.729123 
L 239.300852 268.378871 
L 238.866807 268.014664 
L 238.444536 267.63687 
L 238.034464 267.245867 
L 237.637005 266.842051 
L 237.252558 266.425827 
L 236.88151 265.997616 
L 236.524236 265.557847 
L 236.181094 265.106964 
L 235.852431 264.645421 
L 235.538577 264.173682 
L 235.239848 263.692224 
L 234.956546 263.201529 
L 234.688954 262.702093 
L 234.437344 262.194418 
L 234.201967 261.679016 
L 233.983062 261.156405 
L 233.780849 260.627112 
L 233.59553 260.091669 
L 233.427293 259.550617 
L 233.276308 259.004498 
L 233.142726 258.453865 
L 233.026681 257.89927 
L 232.928291 257.341273 
L 232.847655 256.780435 
L 232.784853 256.217321 
L 232.73995 255.652498 
L 232.71299 255.086534 
L 232.704 254.52 
L 232.704 254.52 
L 232.704 254.52 
L 232.71299 253.953466 
L 232.73995 253.387502 
L 232.784853 252.822679 
L 232.847655 252.259565 
L 232.928291 251.698727 
L 233.026681 251.14073 
L 233.142726 250.586135 
L 233.276308 250.035502 
L 233.427293 249.489383 
L 233.59553 248.948331 
L 233.780849 248.412888 
L 233.983062 247.883595 
L 234.201967 247.360984 
L 234.437344 246.845582 
L 234.688954 246.337907 
L 234.956546 245.838471 
L 235.239848 245.347776 
L 235.538577 244.866318 
L 235.852431 244.394579 
L 236.181094 243.933036 
L 236.524236 243.482153 
L 236.88151 243.042384 
L 237.252558 242.614173 
L 237.637005 242.197949 
L 238.034464 241.794133 
L 238.444536 241.40313 
L 238.866807 241.025336 
L 239.300852 240.661129 
L 239.746233 240.310877 
L 240.202504 239.974932 
L 240.669203 239.653633 
L 241.145862 239.347303 
L 241.632 239.05625 
L 242.127128 238.780769 
L 242.630747 238.521135 
L 243.14235 238.277611 
L 243.661421 238.050442 
L 244.18744 237.839856 
L 244.719874 237.646065 
L 245.25819 237.469266 
L 245.801844 237.309634 
L 246.350288 237.167333 
L 246.902972 237.042504 
L 247.459338 236.935273 
L 248.018826 236.845748 
L 248.580873 236.77402 
L 249.144913 236.720161 
L 249.710377 236.684225 
L 250.276697 236.666248 
L 250.843303 236.666248 
L 251.409623 236.684225 
L 251.975087 236.720161 
L 252.539127 236.77402 
L 253.101174 236.845748 
L 253.660662 236.935273 
L 254.217028 237.042504 
L 254.769712 237.167333 
L 255.318156 237.309634 
L 255.86181 237.469266 
L 256.400126 237.646065 
L 256.93256 237.839856 
L 257.458579 238.050442 
L 257.97765 238.277611 
L 258.489253 238.521135 
L 258.992872 238.780769 
L 259.488 239.05625 
L 259.974138 239.347303 
L 260.450797 239.653633 
L 260.917496 239.974932 
L 261.373767 240.310877 
L 261.819148 240.661129 
L 262.253193 241.025336 
L 262.675464 241.40313 
L 263.085536 241.794133 
L 263.482995 242.197949 
L 263.867442 242.614173 
L 264.23849 243.042384 
L 264.595764 243.482153 
L 264.938906 243.933036 
L 265.267569 244.394579 
L 265.581423 244.866318 
L 265.880152 245.347776 
L 266.163454 245.838471 
L 266.431046 246.337907 
L 266.682656 246.845582 
L 266.918033 247.360984 
L 267.136938 247.883595 
L 267.339151 248.412888 
L 267.52447 248.948331 
L 267.692707 249.489383 
L 267.843692 250.035502 
L 267.977274 250.586135 
L 268.093319 251.14073 
L 268.191709 251.698727 
L 268.272345 252.259565 
L 268.335147 252.822679 
L 268.38005 253.387502 
L 268.40701 253.953466 
z
" style="fill-opacity:0.5;"/>
   </g>
   <g id="matplotlib.axis_1">
    <g id="xtick_1">
     <g id="line2d_1">
      <defs>
       <path d="M 0 0 
L 0 3.5 
" id="me98a9abd9d" style="stroke:#000000;stroke-width:0.8;"/>
      </defs>
      <g>
       <use style="stroke:#000000;stroke-width:0.8;" x="72" xlink:href="#me98a9abd9d" y="433.08"/>
      </g>
     </g>
     <g id="text_1">
      <!-- −20 -->
      <defs>
       <path d="M 54.4375 31.25 
L 1.8125 31.25 
L 1.8125 35.25 
L 54.4375 35.25 
z
" id="TimesNewRomanPSMT-8722"/>
       <path d="M 45.84375 12.75 
L 41.21875 0 
L 2.15625 0 
L 2.15625 1.8125 
Q 19.390625 17.53125 26.421875 27.484375 
Q 33.453125 37.453125 33.453125 45.703125 
Q 33.453125 52 29.59375 56.046875 
Q 25.734375 60.109375 20.359375 60.109375 
Q 15.484375 60.109375 11.59375 57.25 
Q 7.71875 54.390625 5.859375 48.875 
L 4.046875 48.875 
Q 5.28125 57.90625 10.328125 62.734375 
Q 15.375 67.578125 22.953125 67.578125 
Q 31 67.578125 36.390625 62.40625 
Q 41.796875 57.234375 41.796875 50.203125 
Q 41.796875 45.171875 39.453125 40.140625 
Q 35.84375 32.234375 27.734375 23.390625 
Q 15.578125 10.109375 12.546875 7.375 
L 29.828125 7.375 
Q 35.109375 7.375 37.234375 7.765625 
Q 39.359375 8.15625 41.0625 9.34375 
Q 42.78125 10.546875 44.046875 12.75 
z
" id="TimesNewRomanPSMT-50"/>
       <path d="M 3.609375 32.71875 
Q 3.609375 44.046875 7.03125 52.21875 
Q 10.453125 60.40625 16.109375 64.40625 
Q 20.515625 67.578125 25.203125 67.578125 
Q 32.8125 67.578125 38.875 59.8125 
Q 46.4375 50.203125 46.4375 33.734375 
Q 46.4375 22.21875 43.109375 14.15625 
Q 39.796875 6.109375 34.640625 2.46875 
Q 29.5 -1.171875 24.703125 -1.171875 
Q 15.234375 -1.171875 8.9375 10.015625 
Q 3.609375 19.4375 3.609375 32.71875 
z
M 13.1875 31.5 
Q 13.1875 17.828125 16.546875 9.1875 
Q 19.34375 1.90625 24.859375 1.90625 
Q 27.484375 1.90625 30.3125 4.265625 
Q 33.15625 6.640625 34.625 12.203125 
Q 36.859375 20.609375 36.859375 35.890625 
Q 36.859375 47.21875 34.515625 54.78125 
Q 32.765625 60.40625 29.984375 62.75 
Q 27.984375 64.359375 25.140625 64.359375 
Q 21.828125 64.359375 19.234375 61.375 
Q 15.71875 57.328125 14.453125 48.625 
Q 13.1875 39.9375 13.1875 31.5 
z
" id="TimesNewRomanPSMT-48"/>
      </defs>
      <g transform="translate(56.360938 453.9675)scale(0.2 -0.2)">
       <use xlink:href="#TimesNewRomanPSMT-8722"/>
       <use x="56.396484" xlink:href="#TimesNewRomanPSMT-50"/>
       <use x="106.396484" xlink:href="#TimesNewRomanPSMT-48"/>
      </g>
     </g>
    </g>
    <g id="xtick_2">
     <g id="line2d_2">
      <g>
       <use style="stroke:#000000;stroke-width:0.8;" x="161.28" xlink:href="#me98a9abd9d" y="433.08"/>
      </g>
     </g>
     <g id="text_2">
      <!-- −10 -->
      <defs>
       <path d="M 11.71875 59.71875 
L 27.828125 67.578125 
L 29.4375 67.578125 
L 29.4375 11.671875 
Q 29.4375 6.109375 29.90625 4.734375 
Q 30.375 3.375 31.828125 2.640625 
Q 33.296875 1.90625 37.796875 1.8125 
L 37.796875 0 
L 12.890625 0 
L 12.890625 1.8125 
Q 17.578125 1.90625 18.9375 2.609375 
Q 20.3125 3.328125 20.84375 4.515625 
Q 21.390625 5.71875 21.390625 11.671875 
L 21.390625 47.40625 
Q 21.390625 54.640625 20.90625 56.6875 
Q 20.5625 58.25 19.65625 58.984375 
Q 18.75 59.71875 17.484375 59.71875 
Q 15.671875 59.71875 12.453125 58.203125 
z
" id="TimesNewRomanPSMT-49"/>
      </defs>
      <g transform="translate(145.640938 453.9675)scale(0.2 -0.2)">
       <use xlink:href="#TimesNewRomanPSMT-8722"/>
       <use x="56.396484" xlink:href="#TimesNewRomanPSMT-49"/>
       <use x="106.396484" xlink:href="#TimesNewRomanPSMT-48"/>
      </g>
     </g>
    </g>
    <g id="xtick_3">
     <g id="line2d_3">
      <g>
       <use style="stroke:#000000;stroke-width:0.8;" x="250.56" xlink:href="#me98a9abd9d" y="433.08"/>
      </g>
     </g>
     <g id="text_3">
      <!-- 0 -->
      <g transform="translate(245.56 453.9675)scale(0.2 -0.2)">
       <use xlink:href="#TimesNewRomanPSMT-48"/>
      </g>
     </g>
    </g>
    <g id="xtick_4">
     <g id="line2d_4">
      <g>
       <use style="stroke:#000000;stroke-width:0.8;" x="339.84" xlink:href="#me98a9abd9d" y="433.08"/>
      </g>
     </g>
     <g id="text_4">
      <!-- 10 -->
      <g transform="translate(329.84 453.9675)scale(0.2 -0.2)">
       <use xlink:href="#TimesNewRomanPSMT-49"/>
       <use x="50" xlink:href="#TimesNewRomanPSMT-48"/>
      </g>
     </g>
    </g>
    <g id="xtick_5">
     <g id="line2d_5">
      <g>
       <use style="stroke:#000000;stroke-width:0.8;" x="429.12" xlink:href="#me98a9abd9d" y="433.08"/>
      </g>
     </g>
     <g id="text_5">
      <!-- 20 -->
      <g transform="translate(419.12 453.9675)scale(0.2 -0.2)">
       <use xlink:href="#TimesNewRomanPSMT-50"/>
       <use x="50" xlink:href="#TimesNewRomanPSMT-48"/>
      </g>
     </g>
    </g>
    <g id="xtick_6">
     <g id="line2d_6">
      <g>
       <use style="stroke:#000000;stroke-width:0.8;" x="518.4" xlink:href="#me98a9abd9d" y="433.08"/>
      </g>
     </g>
     <g id="text_6">
      <!-- 30 -->
      <defs>
       <path d="M 5.078125 53.609375 
Q 7.90625 60.296875 12.21875 63.9375 
Q 16.546875 67.578125 23 67.578125 
Q 30.953125 67.578125 35.203125 62.40625 
Q 38.421875 58.546875 38.421875 54.15625 
Q 38.421875 46.921875 29.34375 39.203125 
Q 35.453125 36.8125 38.578125 32.375 
Q 41.703125 27.9375 41.703125 21.921875 
Q 41.703125 13.328125 36.234375 7.03125 
Q 29.109375 -1.171875 15.578125 -1.171875 
Q 8.890625 -1.171875 6.46875 0.484375 
Q 4.046875 2.15625 4.046875 4.046875 
Q 4.046875 5.46875 5.1875 6.546875 
Q 6.34375 7.625 7.953125 7.625 
Q 9.1875 7.625 10.453125 7.234375 
Q 11.28125 6.984375 14.203125 5.4375 
Q 17.140625 3.90625 18.265625 3.609375 
Q 20.0625 3.078125 22.125 3.078125 
Q 27.09375 3.078125 30.78125 6.9375 
Q 34.46875 10.796875 34.46875 16.0625 
Q 34.46875 19.921875 32.765625 23.578125 
Q 31.5 26.3125 29.984375 27.734375 
Q 27.875 29.6875 24.21875 31.265625 
Q 20.5625 32.859375 16.75 32.859375 
L 15.1875 32.859375 
L 15.1875 34.328125 
Q 19.046875 34.8125 22.921875 37.109375 
Q 26.8125 39.40625 28.5625 42.625 
Q 30.328125 45.84375 30.328125 49.703125 
Q 30.328125 54.734375 27.171875 57.828125 
Q 24.03125 60.9375 19.34375 60.9375 
Q 11.765625 60.9375 6.6875 52.828125 
z
" id="TimesNewRomanPSMT-51"/>
      </defs>
      <g transform="translate(508.4 453.9675)scale(0.2 -0.2)">
       <use xlink:href="#TimesNewRomanPSMT-51"/>
       <use x="50" xlink:href="#TimesNewRomanPSMT-48"/>
      </g>
     </g>
    </g>
    <g id="text_7">
     <!-- x -->
     <defs>
      <path d="M 1.3125 44.734375 
L 22.359375 44.734375 
L 22.359375 42.921875 
Q 20.359375 42.921875 19.546875 42.234375 
Q 18.75 41.546875 18.75 40.4375 
Q 18.75 39.265625 20.453125 36.8125 
Q 21 36.03125 22.078125 34.375 
L 25.25 29.296875 
L 28.90625 34.375 
Q 32.421875 39.203125 32.421875 40.484375 
Q 32.421875 41.5 31.59375 42.203125 
Q 30.765625 42.921875 28.90625 42.921875 
L 28.90625 44.734375 
L 44.046875 44.734375 
L 44.046875 42.921875 
Q 41.65625 42.78125 39.890625 41.609375 
Q 37.5 39.9375 33.34375 34.375 
L 27.25 26.21875 
L 38.375 10.203125 
Q 42.484375 4.296875 44.234375 3.09375 
Q 46 1.90625 48.78125 1.765625 
L 48.78125 0 
L 27.6875 0 
L 27.6875 1.765625 
Q 29.890625 1.765625 31.109375 2.734375 
Q 32.03125 3.421875 32.03125 4.546875 
Q 32.03125 5.671875 28.90625 10.203125 
L 22.359375 19.78125 
L 15.1875 10.203125 
Q 11.859375 5.765625 11.859375 4.9375 
Q 11.859375 3.765625 12.953125 2.8125 
Q 14.0625 1.859375 16.265625 1.765625 
L 16.265625 0 
L 1.65625 0 
L 1.65625 1.765625 
Q 3.421875 2 4.734375 2.984375 
Q 6.59375 4.390625 10.984375 10.203125 
L 20.359375 22.65625 
L 11.859375 34.96875 
Q 8.25 40.234375 6.265625 41.578125 
Q 4.296875 42.921875 1.3125 42.921875 
z
" id="TimesNewRomanPSMT-120"/>
     </defs>
     <g transform="translate(290.2 476.133125)scale(0.2 -0.2)">
      <use xlink:href="#TimesNewRomanPSMT-120"/>
     </g>
    </g>
   </g>
   <g id="matplotlib.axis_2">
    <g id="ytick_1">
     <g id="line2d_7">
      <defs>
       <path d="M 0 0 
L -3.5 0 
" id="m1b66fb53c8" style="stroke:#000000;stroke-width:0.8;"/>
      </defs>
      <g>
       <use style="stroke:#000000;stroke-width:0.8;" x="72" xlink:href="#m1b66fb53c8" y="433.08"/>
      </g>
     </g>
     <g id="text_8">
      <!-- −20 -->
      <g transform="translate(33.721875 440.02375)scale(0.2 -0.2)">
       <use xlink:href="#TimesNewRomanPSMT-8722"/>
       <use x="56.396484" xlink:href="#TimesNewRomanPSMT-50"/>
       <use x="106.396484" xlink:href="#TimesNewRomanPSMT-48"/>
      </g>
     </g>
    </g>
    <g id="ytick_2">
     <g id="line2d_8">
      <g>
       <use style="stroke:#000000;stroke-width:0.8;" x="72" xlink:href="#m1b66fb53c8" y="388.44"/>
      </g>
     </g>
     <g id="text_9">
      <!-- −15 -->
      <defs>
       <path d="M 43.40625 66.21875 
L 39.59375 57.90625 
L 19.671875 57.90625 
L 15.328125 49.03125 
Q 28.265625 47.125 35.84375 39.40625 
Q 42.328125 32.765625 42.328125 23.78125 
Q 42.328125 18.5625 40.203125 14.109375 
Q 38.09375 9.671875 34.859375 6.546875 
Q 31.640625 3.421875 27.6875 1.515625 
Q 22.078125 -1.171875 16.15625 -1.171875 
Q 10.203125 -1.171875 7.484375 0.84375 
Q 4.78125 2.875 4.78125 5.328125 
Q 4.78125 6.6875 5.90625 7.734375 
Q 7.03125 8.796875 8.734375 8.796875 
Q 10.015625 8.796875 10.96875 8.40625 
Q 11.921875 8.015625 14.203125 6.390625 
Q 17.875 3.859375 21.625 3.859375 
Q 27.34375 3.859375 31.65625 8.171875 
Q 35.984375 12.5 35.984375 18.703125 
Q 35.984375 24.703125 32.125 29.90625 
Q 28.265625 35.109375 21.484375 37.9375 
Q 16.15625 40.140625 6.984375 40.484375 
L 19.671875 66.21875 
z
" id="TimesNewRomanPSMT-53"/>
      </defs>
      <g transform="translate(33.721875 395.38375)scale(0.2 -0.2)">
       <use xlink:href="#TimesNewRomanPSMT-8722"/>
       <use x="56.396484" xlink:href="#TimesNewRomanPSMT-49"/>
       <use x="106.396484" xlink:href="#TimesNewRomanPSMT-53"/>
      </g>
     </g>
    </g>
    <g id="ytick_3">
     <g id="line2d_9">
      <g>
       <use style="stroke:#000000;stroke-width:0.8;" x="72" xlink:href="#m1b66fb53c8" y="343.8"/>
      </g>
     </g>
     <g id="text_10">
      <!-- −10 -->
      <g transform="translate(33.721875 350.74375)scale(0.2 -0.2)">
       <use xlink:href="#TimesNewRomanPSMT-8722"/>
       <use x="56.396484" xlink:href="#TimesNewRomanPSMT-49"/>
       <use x="106.396484" xlink:href="#TimesNewRomanPSMT-48"/>
      </g>
     </g>
    </g>
    <g id="ytick_4">
     <g id="line2d_10">
      <g>
       <use style="stroke:#000000;stroke-width:0.8;" x="72" xlink:href="#m1b66fb53c8" y="299.16"/>
      </g>
     </g>
     <g id="text_11">
      <!-- −5 -->
      <g transform="translate(43.721875 306.10375)scale(0.2 -0.2)">
       <use xlink:href="#TimesNewRomanPSMT-8722"/>
       <use x="56.396484" xlink:href="#TimesNewRomanPSMT-53"/>
      </g>
     </g>
    </g>
    <g id="ytick_5">
     <g id="line2d_11">
      <g>
       <use style="stroke:#000000;stroke-width:0.8;" x="72" xlink:href="#m1b66fb53c8" y="254.52"/>
      </g>
     </g>
     <g id="text_12">
      <!-- 0 -->
      <g transform="translate(55 261.46375)scale(0.2 -0.2)">
       <use xlink:href="#TimesNewRomanPSMT-48"/>
      </g>
     </g>
    </g>
    <g id="ytick_6">
     <g id="line2d_12">
      <g>
       <use style="stroke:#000000;stroke-width:0.8;" x="72" xlink:href="#m1b66fb53c8" y="209.88"/>
      </g>
     </g>
     <g id="text_13">
      <!-- 5 -->
      <g transform="translate(55 216.82375)scale(0.2 -0.2)">
       <use xlink:href="#TimesNewRomanPSMT-53"/>
      </g>
     </g>
    </g>
    <g id="ytick_7">
     <g id="line2d_13">
      <g>
       <use style="stroke:#000000;stroke-width:0.8;" x="72" xlink:href="#m1b66fb53c8" y="165.24"/>
      </g>
     </g>
     <g id="text_14">
      <!-- 10 -->
      <g transform="translate(45 172.18375)scale(0.2 -0.2)">
       <use xlink:href="#TimesNewRomanPSMT-49"/>
       <use x="50" xlink:href="#TimesNewRomanPSMT-48"/>
      </g>
     </g>
    </g>
    <g id="ytick_8">
     <g id="line2d_14">
      <g>
       <use style="stroke:#000000;stroke-width:0.8;" x="72" xlink:href="#m1b66fb53c8" y="120.6"/>
      </g>
     </g>
     <g id="text_15">
      <!-- 15 -->
      <g transform="translate(45 127.54375)scale(0.2 -0.2)">
       <use xlink:href="#TimesNewRomanPSMT-49"/>
       <use x="50" xlink:href="#TimesNewRomanPSMT-53"/>
      </g>
     </g>
    </g>
    <g id="ytick_9">
     <g id="line2d_15">
      <g>
       <use style="stroke:#000000;stroke-width:0.8;" x="72" xlink:href="#m1b66fb53c8" y="75.96"/>
      </g>
     </g>
     <g id="text_16">
      <!-- 20 -->
      <g transform="translate(45 82.90375)scale(0.2 -0.2)">
       <use xlink:href="#TimesNewRomanPSMT-50"/>
       <use x="50" xlink:href="#TimesNewRomanPSMT-48"/>
      </g>
     </g>
    </g>
    <g id="text_17">
     <!-- y -->
     <defs>
      <path d="M 0.59375 44.734375 
L 21.4375 44.734375 
L 21.4375 42.921875 
L 20.40625 42.921875 
Q 18.21875 42.921875 17.109375 41.96875 
Q 16.015625 41.015625 16.015625 39.59375 
Q 16.015625 37.703125 17.625 34.328125 
L 28.515625 11.765625 
L 38.53125 36.46875 
Q 39.359375 38.484375 39.359375 40.4375 
Q 39.359375 41.3125 39.015625 41.75 
Q 38.625 42.28125 37.796875 42.59375 
Q 36.96875 42.921875 34.859375 42.921875 
L 34.859375 44.734375 
L 49.421875 44.734375 
L 49.421875 42.921875 
Q 47.609375 42.71875 46.625 42.125 
Q 45.65625 41.546875 44.484375 39.9375 
Q 44.046875 39.265625 42.828125 36.1875 
L 24.609375 -8.453125 
Q 21.96875 -14.9375 17.6875 -18.25 
Q 13.421875 -21.578125 9.46875 -21.578125 
Q 6.59375 -21.578125 4.734375 -19.921875 
Q 2.875 -18.265625 2.875 -16.109375 
Q 2.875 -14.0625 4.21875 -12.8125 
Q 5.5625 -11.578125 7.90625 -11.578125 
Q 9.515625 -11.578125 12.3125 -12.640625 
Q 14.265625 -13.375 14.75 -13.375 
Q 16.21875 -13.375 17.9375 -11.859375 
Q 19.671875 -10.359375 21.4375 -6 
L 24.609375 1.765625 
L 8.546875 35.5 
Q 7.8125 37.015625 6.203125 39.265625 
Q 4.984375 40.96875 4.203125 41.546875 
Q 3.078125 42.328125 0.59375 42.921875 
z
" id="TimesNewRomanPSMT-121"/>
     </defs>
     <g transform="translate(25.40625 259.52)rotate(-90)scale(0.2 -0.2)">
      <use xlink:href="#TimesNewRomanPSMT-121"/>
     </g>
    </g>
   </g>
   <g id="line2d_16">
    <path clip-path="url(#pcc9e64ecf3)" d="M 72 254.52 
L 186.91882 238.481091 
L 206.781941 235.91351 
L 217.221488 234.773117 
L 224.207219 234.223077 
L 229.456588 234.024207 
L 233.698075 234.079461 
L 237.273677 234.343675 
L 240.356593 234.789746 
L 243.065038 235.401711 
L 245.462683 236.166906 
L 247.338314 236.95419 
L 247.338314 236.95419 
" style="fill:none;stroke:#0000ff;stroke-linecap:square;stroke-width:1.5;"/>
   </g>
   <g id="line2d_17">
    <path clip-path="url(#pcc9e64ecf3)" d="M 72 254.52 
L 169.104473 236.343154 
L 192.885141 232.097556 
L 205.815043 230.000257 
L 214.594224 228.791076 
L 221.239943 228.09174 
L 226.64905 227.740063 
L 231.230265 227.660261 
L 235.227715 227.808923 
L 238.779849 228.159453 
L 241.991698 228.697035 
L 244.906582 229.408185 
L 247.55249 230.279714 
L 249.958249 231.303171 
L 252.141669 232.47173 
L 254.094133 233.76611 
L 255.824474 235.176819 
L 257.335951 236.694215 
L 258.615957 238.291891 
L 258.927371 238.74304 
L 258.927371 238.74304 
" style="fill:none;stroke:#0000ff;stroke-linecap:square;stroke-width:1.5;"/>
   </g>
   <g id="line2d_18">
    <path clip-path="url(#pcc9e64ecf3)" d="M 72 254.52 
L 154.200568 235.152256 
L 180.183927 229.238474 
L 194.993447 226.082001 
L 205.232322 224.117037 
L 213.087093 222.828316 
L 219.502525 221.994379 
L 224.97949 221.500708 
L 229.801208 221.284278 
L 234.151076 221.308474 
L 238.116457 221.550603 
L 241.756644 221.992585 
L 245.144304 222.625995 
L 248.286075 223.437407 
L 251.212436 224.420602 
L 253.930897 225.566215 
L 256.456964 226.870926 
L 258.777006 228.317962 
L 260.899701 229.902913 
L 262.810232 231.604675 
L 264.513548 233.417133 
L 266.003386 235.324816 
L 267.273939 237.310558 
L 268.320318 239.355597 
L 269.138975 241.43971 
L 269.728098 243.541421 
L 270.089188 245.648788 
L 270.221382 247.7277 
L 270.129055 249.764315 
L 269.819372 251.723972 
L 269.300743 253.592135 
L 268.585017 255.344336 
L 268.375575 255.764287 
L 268.375575 255.764287 
" style="fill:none;stroke:#0000ff;stroke-linecap:square;stroke-width:1.5;"/>
   </g>
   <g id="line2d_19">
    <path clip-path="url(#pcc9e64ecf3)" d="M 72 254.52 
L 141.902092 234.591418 
L 168.80111 227.134824 
L 184.857502 222.901133 
L 196.231277 220.122319 
L 205.08616 218.180654 
L 212.377899 216.80278 
L 218.677438 215.83387 
L 224.264417 215.195967 
L 229.323058 214.839081 
L 233.979842 214.730772 
L 238.324532 214.850427 
L 242.40265 215.183781 
L 246.246356 215.71904 
L 249.896284 216.450058 
L 253.365786 217.3702 
L 256.663405 218.473062 
L 259.809793 219.759211 
L 262.790097 221.216746 
L 265.618861 222.847372 
L 268.27945 224.636505 
L 270.782475 226.58664 
L 273.122974 228.691792 
L 275.295577 230.945461 
L 277.284884 233.328002 
L 279.09707 235.843475 
L 280.726815 238.484476 
L 282.169053 241.243524 
L 283.419039 244.113233 
L 284.472382 247.086507 
L 285.325045 250.156773 
L 285.976117 253.334844 
L 286.417087 256.600276 
L 286.64446 259.94975 
L 286.654601 263.381838 
L 286.441768 266.915859 
L 286.000362 270.538423 
L 285.31992 274.276878 
L 284.388096 278.146039 
L 283.188981 282.167845 
L 281.69322 286.395409 
L 279.877031 290.854007 
L 277.676357 295.656108 
L 275.034356 300.878081 
L 271.823182 306.7213 
L 267.859896 313.45671 
L 262.847954 321.518416 
L 256.242894 331.700511 
L 250.640655 340.114454 
L 250.640655 340.114454 
" style="fill:none;stroke:#ff0000;stroke-linecap:square;stroke-width:1.5;"/>
   </g>
   <g id="line2d_20">
    <path clip-path="url(#pcc9e64ecf3)" d="M 72 254.52 
L 131.84507 234.419393 
L 158.697908 225.616783 
L 175.489296 220.33346 
L 187.689456 216.718476 
L 197.299145 214.09492 
L 205.353068 212.120741 
L 212.331282 210.633915 
L 218.565818 209.527951 
L 224.280279 208.736892 
L 229.582893 208.224956 
L 234.575041 207.964923 
L 239.309738 207.939752 
L 243.826116 208.136202 
L 248.175233 208.546251 
L 252.377347 209.164247 
L 256.468667 209.990526 
L 260.439553 211.018963 
L 264.319548 212.253789 
L 268.096193 213.688377 
L 271.79578 215.330805 
L 275.424216 217.18444 
L 278.987787 219.25409 
L 282.511735 221.558934 
L 285.986278 224.098184 
L 289.440088 226.899651 
L 292.886916 229.984952 
L 296.345096 233.382695 
L 299.83914 237.131156 
L 303.420073 241.304051 
L 307.134305 245.979814 
L 311.066574 251.295622 
L 315.31407 257.420248 
L 320.068294 264.677927 
L 325.572511 273.499913 
L 332.328695 284.767061 
L 341.225654 300.061928 
L 354.259554 322.947429 
L 376.911234 363.22936 
L 430.570309 459.214307 
L 456.135008 505 
L 456.135008 505 
" style="fill:none;stroke:#ff0000;stroke-linecap:square;stroke-width:1.5;"/>
   </g>
   <g id="line2d_21">
    <path clip-path="url(#pcc9e64ecf3)" d="M 72 254.52 
L 123.692256 234.450632 
L 149.80796 224.532977 
L 166.905712 218.265263 
L 179.654267 213.819772 
L 189.860121 210.488829 
L 198.493256 207.898838 
L 206.06648 205.853989 
L 212.912126 204.232817 
L 219.199882 202.969514 
L 225.07758 202.012628 
L 230.655403 201.327734 
L 235.992286 200.894359 
L 241.159502 200.696506 
L 246.191098 200.725553 
L 251.115019 200.975407 
L 255.98002 201.445009 
L 260.782026 202.131393 
L 265.565974 203.039344 
L 270.352044 204.173746 
L 275.187087 205.549506 
L 280.071493 207.171586 
L 285.060855 209.064431 
L 290.193572 211.251632 
L 295.51876 213.76452 
L 301.12946 216.660797 
L 307.116633 220.004836 
L 313.639377 223.906866 
L 320.923501 228.529516 
L 329.30616 234.12099 
L 339.320426 241.078376 
L 351.930962 250.12329 
L 369.03462 262.682406 
L 394.902193 281.978634 
L 441.552482 317.094955 
L 518.801791 375.456326 
L 518.801791 375.456326 
" style="fill:none;stroke:#ff0000;stroke-linecap:square;stroke-width:1.5;"/>
   </g>
   <g id="line2d_22">
    <path clip-path="url(#pcc9e64ecf3)" d="M 72 254.52 
L 116.984358 234.613459 
L 142.0127 223.765664 
L 159.136376 216.575377 
L 172.183245 211.330013 
L 182.803475 207.292775 
L 191.913729 204.062252 
L 199.969009 201.437422 
L 207.303466 199.278252 
L 214.087131 197.509744 
L 220.504351 196.06453 
L 226.638413 194.909873 
L 232.553636 194.021234 
L 238.33055 193.37722 
L 244.010359 192.966948 
L 249.658227 192.782302 
L 255.278381 192.820839 
L 260.932845 193.081747 
L 266.656248 193.568175 
L 272.517516 194.290342 
L 278.563799 195.261288 
L 284.852998 196.498774 
L 291.458356 198.02699 
L 298.511561 199.889338 
L 306.187488 202.149977 
L 314.685696 204.889251 
L 324.344018 208.241509 
L 335.733576 212.438022 
L 349.721146 217.839296 
L 367.92129 225.118854 
L 393.657662 235.669404 
L 435.173545 252.954328 
L 518.815268 288.059318 
L 518.815268 288.059318 
" style="fill:none;stroke:#ff0000;stroke-linecap:square;stroke-width:1.5;"/>
   </g>
   <g id="line2d_23">
    <path clip-path="url(#pcc9e64ecf3)" d="M 72 254.52 
L 111.407464 234.853434 
L 135.089212 223.268502 
L 151.933729 215.264543 
L 165.098807 209.246911 
L 175.992618 204.504879 
L 185.426493 200.63481 
L 193.874044 197.405109 
L 201.61991 194.678207 
L 208.867004 192.360048 
L 215.733402 190.394198 
L 222.375067 188.722717 
L 228.825703 187.32723 
L 235.174614 186.179935 
L 241.502933 185.26253 
L 247.82324 184.570776 
L 254.213114 184.094944 
L 260.720145 183.833149 
L 267.43241 183.786395 
L 274.415586 183.961687 
L 281.750651 184.369794 
L 289.581418 185.030516 
L 298.052248 185.970981 
L 307.40863 187.236729 
L 317.999717 188.898438 
L 330.347711 191.066946 
L 345.354733 193.937065 
L 364.482481 197.83274 
L 390.729042 203.419527 
L 431.102992 212.262559 
L 505.593366 228.840165 
L 518.555883 231.737687 
L 518.555883 231.737687 
" style="fill:none;stroke:#008000;stroke-linecap:square;stroke-width:1.5;"/>
   </g>
   <g id="line2d_24">
    <path clip-path="url(#pcc9e64ecf3)" d="M 72 254.52 
L 106.690054 235.153755 
L 129.039823 222.918259 
L 145.46025 214.172198 
L 158.562569 207.437309 
L 169.585589 202.014119 
L 179.267423 197.493161 
L 188.006826 193.653241 
L 196.078379 190.345477 
L 203.719079 187.452509 
L 211.005781 184.928971 
L 218.101259 182.705844 
L 225.076347 180.75355 
L 231.992848 179.048863 
L 238.907409 177.573269 
L 245.911413 176.305802 
L 253.063521 175.237391 
L 260.467525 174.357066 
L 268.203824 173.662788 
L 276.371401 173.154519 
L 285.142048 172.833502 
L 294.742555 172.708239 
L 305.431503 172.795513 
L 317.642378 173.122602 
L 332.104953 173.739838 
L 349.922524 174.732513 
L 373.140074 176.260881 
L 405.941576 178.658801 
L 458.611377 182.755443 
L 518.45959 187.540387 
L 518.45959 187.540387 
" style="fill:none;stroke:#008000;stroke-linecap:square;stroke-width:1.5;"/>
   </g>
   <g id="line2d_25">
    <path clip-path="url(#pcc9e64ecf3)" d="M 72 254.52 
L 102.700183 235.46715 
L 123.636561 222.723362 
L 139.499151 213.318464 
L 152.466236 205.881888 
L 163.551642 199.775482 
L 173.379883 194.61102 
L 182.323607 190.158035 
L 190.684927 186.240157 
L 198.614279 182.767235 
L 206.264883 179.656471 
L 213.764121 176.845959 
L 221.186621 174.301097 
L 228.599855 171.993619 
L 236.107412 169.889383 
L 243.777136 167.970623 
L 251.725022 166.212676 
L 260.042084 164.602851 
L 268.839654 163.12841 
L 278.308314 161.769384 
L 288.699706 160.506554 
L 300.302303 159.325146 
L 313.598143 158.199947 
L 329.398971 157.093171 
L 348.937656 155.956768 
L 374.632566 154.69806 
L 411.172579 153.147504 
L 470.407703 150.880219 
L 518.679196 149.117383 
L 518.679196 149.117383 
" style="fill:none;stroke:#008000;stroke-linecap:square;stroke-width:1.5;"/>
   </g>
   <g id="line2d_26">
    <path clip-path="url(#pcc9e64ecf3)" d="M 72 254.52 
L 99.326924 235.756404 
L 118.813056 222.634211 
L 134.078295 212.61376 
L 146.743164 204.558875 
L 157.746535 197.818124 
L 167.640148 192.013628 
L 176.758787 186.918519 
L 185.344496 182.373884 
L 193.541489 178.284145 
L 201.542826 174.539701 
L 209.397358 171.108217 
L 217.265078 167.91388 
L 225.179747 164.940503 
L 233.257388 162.14348 
L 241.623383 159.483465 
L 250.376096 156.936456 
L 259.63468 154.476485 
L 269.601097 152.061843 
L 280.484018 149.657206 
L 292.694172 147.192204 
L 306.683931 144.601131 
L 323.216704 141.772124 
L 343.62169 138.514675 
L 370.371986 134.482006 
L 408.216863 129.018366 
L 469.025883 120.488146 
L 518.689693 113.608714 
L 518.689693 113.608714 
" style="fill:none;stroke:#008000;stroke-linecap:square;stroke-width:1.5;"/>
   </g>
   <g id="line2d_27">
    <path clip-path="url(#pcc9e64ecf3)" d="M 72 254.52 
L 96.391497 236.055642 
L 114.50826 222.608451 
L 129.09982 212.046771 
L 141.43131 203.388822 
L 152.314354 196.014609 
L 162.190188 189.587542 
L 171.366242 183.877452 
L 180.069444 178.719964 
L 188.477596 173.992991 
L 196.7392 169.602373 
L 204.944678 165.493189 
L 213.176978 161.618731 
L 221.560502 157.918805 
L 230.182118 154.356826 
L 239.186054 150.878316 
L 248.693241 147.444955 
L 258.907552 143.994849 
L 270.094449 140.455221 
L 282.552346 136.752037 
L 296.77712 132.761953 
L 313.511837 128.306137 
L 334.040508 123.079823 
L 360.592978 116.56206 
L 397.461893 107.756466 
L 455.027157 94.258448 
L 518.532957 79.501412 
L 518.532957 79.501412 
" style="fill:none;stroke:#008000;stroke-linecap:square;stroke-width:1.5;"/>
   </g>
   <g id="line2d_28">
    <path clip-path="url(#pcc9e64ecf3)" d="M 72 254.52 
L 93.908572 236.282113 
L 110.732965 222.55588 
L 124.587788 211.531923 
L 136.510446 202.323102 
L 147.148499 194.381471 
L 156.938791 187.345722 
L 166.153693 180.994532 
L 174.957403 175.194004 
L 183.565123 169.788126 
L 192.03654 164.729371 
L 200.507249 159.928618 
L 209.108975 155.308824 
L 217.932846 150.82225 
L 227.126863 146.398354 
L 236.813183 141.986517 
L 247.196093 137.505325 
L 258.479836 132.881731 
L 271.002987 127.995685 
L 285.242233 122.685346 
L 301.819006 116.74697 
L 321.995148 109.764157 
L 347.683637 101.120033 
L 382.761853 89.565645 
L 435.86865 72.328051 
L 518.496688 45.731009 
L 518.496688 45.731009 
" style="fill:none;stroke:#008000;stroke-linecap:square;stroke-width:1.5;"/>
   </g>
   <g id="patch_3">
    <path d="M 72 433.08 
L 72 75.96 
" style="fill:none;stroke:#000000;stroke-linecap:square;stroke-linejoin:miter;stroke-width:0.8;"/>
   </g>
   <g id="patch_4">
    <path d="M 518.4 433.08 
L 518.4 75.96 
" style="fill:none;stroke:#000000;stroke-linecap:square;stroke-linejoin:miter;stroke-width:0.8;"/>
   </g>
   <g id="patch_5">
    <path d="M 72 433.08 
L 518.4 433.08 
" style="fill:none;stroke:#000000;stroke-linecap:square;stroke-linejoin:miter;stroke-width:0.8;"/>
   </g>
   <g id="patch_6">
    <path d="M 72 75.96 
L 518.4 75.96 
" style="fill:none;stroke:#000000;stroke-linecap:square;stroke-linejoin:miter;stroke-width:0.8;"/>
   </g>
  </g>
 </g>
 <defs>
  <clipPath id="pcc9e64ecf3">
   <rect height="357.12" width="446.4" x="72" y="75.96"/>
  </clipPath>
 </defs>
</svg>
