<?xml version="1.0" encoding="utf-8" standalone="no"?>
<!DOCTYPE svg PUBLIC "-//W3C//DTD SVG 1.1//EN"
  "http://www.w3.org/Graphics/SVG/1.1/DTD/svg11.dtd">
<!-- Created with matplotlib (https://matplotlib.org/) -->
<svg height="504pt" version="1.1" viewBox="0 0 576 504" width="576pt" xmlns="http://www.w3.org/2000/svg" xmlns:xlink="http://www.w3.org/1999/xlink">
 <defs>
  <style type="text/css">
*{stroke-linecap:butt;stroke-linejoin:round;}
  </style>
 </defs>
 <g id="figure_1">
  <g id="patch_1">
   <path d="M 0 504 
L 576 504 
L 576 0 
L 0 0 
z
" style="fill:#ffffff;"/>
  </g>
  <g id="axes_1">
   <g id="patch_2">
    <path d="M 72 433.08 
L 518.4 433.08 
L 518.4 75.96 
L 72 75.96 
z
" style="fill:#ffffff;"/>
   </g>
   <g id="PolyCollection_1">
    <path clip-path="url(#p4b59a0402f)" d="M 268.416 254.52 
L 268.40701 255.086534 
L 268.38005 255.652498 
L 268.335147 256.217321 
L 268.272345 256.780435 
L 268.191709 257.341273 
L 268.093319 257.89927 
L 267.977274 258.453865 
L 267.843692 259.004498 
L 267.692707 259.550617 
L 267.52447 260.091669 
L 267.339151 260.627112 
L 267.136938 261.156405 
L 266.918033 261.679016 
L 266.682656 262.194418 
L 266.431046 262.702093 
L 266.163454 263.201529 
L 265.880152 263.692224 
L 265.581423 264.173682 
L 265.267569 264.645421 
L 264.938906 265.106964 
L 264.595764 265.557847 
L 264.23849 265.997616 
L 263.867442 266.425827 
L 263.482995 266.842051 
L 263.085536 267.245867 
L 262.675464 267.63687 
L 262.253193 268.014664 
L 261.819148 268.378871 
L 261.373767 268.729123 
L 260.917496 269.065068 
L 260.450797 269.386367 
L 259.974138 269.692697 
L 259.488 269.98375 
L 258.992872 270.259231 
L 258.489253 270.518865 
L 257.97765 270.762389 
L 257.458579 270.989558 
L 256.93256 271.200144 
L 256.400126 271.393935 
L 255.86181 271.570734 
L 255.318156 271.730366 
L 254.769712 271.872667 
L 254.217028 271.997496 
L 253.660662 272.104727 
L 253.101174 272.194252 
L 252.539127 272.26598 
L 251.975087 272.319839 
L 251.409623 272.355775 
L 250.843303 272.373752 
L 250.276697 272.373752 
L 249.710377 272.355775 
L 249.144913 272.319839 
L 248.580873 272.26598 
L 248.018826 272.194252 
L 247.459338 272.104727 
L 246.902972 271.997496 
L 246.350288 271.872667 
L 245.801844 271.730366 
L 245.25819 271.570734 
L 244.719874 271.393935 
L 244.18744 271.200144 
L 243.661421 270.989558 
L 243.14235 270.762389 
L 242.630747 270.518865 
L 242.127128 270.259231 
L 241.632 269.98375 
L 241.145862 269.692697 
L 240.669203 269.386367 
L 240.202504 269.065068 
L 239.746233 268.729123 
L 239.300852 268.378871 
L 238.866807 268.014664 
L 238.444536 267.63687 
L 238.034464 267.245867 
L 237.637005 266.842051 
L 237.252558 266.425827 
L 236.88151 265.997616 
L 236.524236 265.557847 
L 236.181094 265.106964 
L 235.852431 264.645421 
L 235.538577 264.173682 
L 235.239848 263.692224 
L 234.956546 263.201529 
L 234.688954 262.702093 
L 234.437344 262.194418 
L 234.201967 261.679016 
L 233.983062 261.156405 
L 233.780849 260.627112 
L 233.59553 260.091669 
L 233.427293 259.550617 
L 233.276308 259.004498 
L 233.142726 258.453865 
L 233.026681 257.89927 
L 232.928291 257.341273 
L 232.847655 256.780435 
L 232.784853 256.217321 
L 232.73995 255.652498 
L 232.71299 255.086534 
L 232.704 254.52 
L 232.704 254.52 
L 232.704 254.52 
L 232.71299 253.953466 
L 232.73995 253.387502 
L 232.784853 252.822679 
L 232.847655 252.259565 
L 232.928291 251.698727 
L 233.026681 251.14073 
L 233.142726 250.586135 
L 233.276308 250.035502 
L 233.427293 249.489383 
L 233.59553 248.948331 
L 233.780849 248.412888 
L 233.983062 247.883595 
L 234.201967 247.360984 
L 234.437344 246.845582 
L 234.688954 246.337907 
L 234.956546 245.838471 
L 235.239848 245.347776 
L 235.538577 244.866318 
L 235.852431 244.394579 
L 236.181094 243.933036 
L 236.524236 243.482153 
L 236.88151 243.042384 
L 237.252558 242.614173 
L 237.637005 242.197949 
L 238.034464 241.794133 
L 238.444536 241.40313 
L 238.866807 241.025336 
L 239.300852 240.661129 
L 239.746233 240.310877 
L 240.202504 239.974932 
L 240.669203 239.653633 
L 241.145862 239.347303 
L 241.632 239.05625 
L 242.127128 238.780769 
L 242.630747 238.521135 
L 243.14235 238.277611 
L 243.661421 238.050442 
L 244.18744 237.839856 
L 244.719874 237.646065 
L 245.25819 237.469266 
L 245.801844 237.309634 
L 246.350288 237.167333 
L 246.902972 237.042504 
L 247.459338 236.935273 
L 248.018826 236.845748 
L 248.580873 236.77402 
L 249.144913 236.720161 
L 249.710377 236.684225 
L 250.276697 236.666248 
L 250.843303 236.666248 
L 251.409623 236.684225 
L 251.975087 236.720161 
L 252.539127 236.77402 
L 253.101174 236.845748 
L 253.660662 236.935273 
L 254.217028 237.042504 
L 254.769712 237.167333 
L 255.318156 237.309634 
L 255.86181 237.469266 
L 256.400126 237.646065 
L 256.93256 237.839856 
L 257.458579 238.050442 
L 257.97765 238.277611 
L 258.489253 238.521135 
L 258.992872 238.780769 
L 259.488 239.05625 
L 259.974138 239.347303 
L 260.450797 239.653633 
L 260.917496 239.974932 
L 261.373767 240.310877 
L 261.819148 240.661129 
L 262.253193 241.025336 
L 262.675464 241.40313 
L 263.085536 241.794133 
L 263.482995 242.197949 
L 263.867442 242.614173 
L 264.23849 243.042384 
L 264.595764 243.482153 
L 264.938906 243.933036 
L 265.267569 244.394579 
L 265.581423 244.866318 
L 265.880152 245.347776 
L 266.163454 245.838471 
L 266.431046 246.337907 
L 266.682656 246.845582 
L 266.918033 247.360984 
L 267.136938 247.883595 
L 267.339151 248.412888 
L 267.52447 248.948331 
L 267.692707 249.489383 
L 267.843692 250.035502 
L 267.977274 250.586135 
L 268.093319 251.14073 
L 268.191709 251.698727 
L 268.272345 252.259565 
L 268.335147 252.822679 
L 268.38005 253.387502 
L 268.40701 253.953466 
z
" style="fill-opacity:0.5;"/>
   </g>
   <g id="matplotlib.axis_1">
    <g id="xtick_1">
     <g id="line2d_1">
      <defs>
       <path d="M 0 0 
L 0 3.5 
" id="mb779090d40" style="stroke:#000000;stroke-width:0.8;"/>
      </defs>
      <g>
       <use style="stroke:#000000;stroke-width:0.8;" x="72" xlink:href="#mb779090d40" y="433.08"/>
      </g>
     </g>
     <g id="text_1">
      <!-- −20 -->
      <defs>
       <path d="M 54.4375 31.25 
L 1.8125 31.25 
L 1.8125 35.25 
L 54.4375 35.25 
z
" id="TimesNewRomanPSMT-8722"/>
       <path d="M 45.84375 12.75 
L 41.21875 0 
L 2.15625 0 
L 2.15625 1.8125 
Q 19.390625 17.53125 26.421875 27.484375 
Q 33.453125 37.453125 33.453125 45.703125 
Q 33.453125 52 29.59375 56.046875 
Q 25.734375 60.109375 20.359375 60.109375 
Q 15.484375 60.109375 11.59375 57.25 
Q 7.71875 54.390625 5.859375 48.875 
L 4.046875 48.875 
Q 5.28125 57.90625 10.328125 62.734375 
Q 15.375 67.578125 22.953125 67.578125 
Q 31 67.578125 36.390625 62.40625 
Q 41.796875 57.234375 41.796875 50.203125 
Q 41.796875 45.171875 39.453125 40.140625 
Q 35.84375 32.234375 27.734375 23.390625 
Q 15.578125 10.109375 12.546875 7.375 
L 29.828125 7.375 
Q 35.109375 7.375 37.234375 7.765625 
Q 39.359375 8.15625 41.0625 9.34375 
Q 42.78125 10.546875 44.046875 12.75 
z
" id="TimesNewRomanPSMT-50"/>
       <path d="M 3.609375 32.71875 
Q 3.609375 44.046875 7.03125 52.21875 
Q 10.453125 60.40625 16.109375 64.40625 
Q 20.515625 67.578125 25.203125 67.578125 
Q 32.8125 67.578125 38.875 59.8125 
Q 46.4375 50.203125 46.4375 33.734375 
Q 46.4375 22.21875 43.109375 14.15625 
Q 39.796875 6.109375 34.640625 2.46875 
Q 29.5 -1.171875 24.703125 -1.171875 
Q 15.234375 -1.171875 8.9375 10.015625 
Q 3.609375 19.4375 3.609375 32.71875 
z
M 13.1875 31.5 
Q 13.1875 17.828125 16.546875 9.1875 
Q 19.34375 1.90625 24.859375 1.90625 
Q 27.484375 1.90625 30.3125 4.265625 
Q 33.15625 6.640625 34.625 12.203125 
Q 36.859375 20.609375 36.859375 35.890625 
Q 36.859375 47.21875 34.515625 54.78125 
Q 32.765625 60.40625 29.984375 62.75 
Q 27.984375 64.359375 25.140625 64.359375 
Q 21.828125 64.359375 19.234375 61.375 
Q 15.71875 57.328125 14.453125 48.625 
Q 13.1875 39.9375 13.1875 31.5 
z
" id="TimesNewRomanPSMT-48"/>
      </defs>
      <g transform="translate(56.360938 453.9675)scale(0.2 -0.2)">
       <use xlink:href="#TimesNewRomanPSMT-8722"/>
       <use x="56.396484" xlink:href="#TimesNewRomanPSMT-50"/>
       <use x="106.396484" xlink:href="#TimesNewRomanPSMT-48"/>
      </g>
     </g>
    </g>
    <g id="xtick_2">
     <g id="line2d_2">
      <g>
       <use style="stroke:#000000;stroke-width:0.8;" x="161.28" xlink:href="#mb779090d40" y="433.08"/>
      </g>
     </g>
     <g id="text_2">
      <!-- −10 -->
      <defs>
       <path d="M 11.71875 59.71875 
L 27.828125 67.578125 
L 29.4375 67.578125 
L 29.4375 11.671875 
Q 29.4375 6.109375 29.90625 4.734375 
Q 30.375 3.375 31.828125 2.640625 
Q 33.296875 1.90625 37.796875 1.8125 
L 37.796875 0 
L 12.890625 0 
L 12.890625 1.8125 
Q 17.578125 1.90625 18.9375 2.609375 
Q 20.3125 3.328125 20.84375 4.515625 
Q 21.390625 5.71875 21.390625 11.671875 
L 21.390625 47.40625 
Q 21.390625 54.640625 20.90625 56.6875 
Q 20.5625 58.25 19.65625 58.984375 
Q 18.75 59.71875 17.484375 59.71875 
Q 15.671875 59.71875 12.453125 58.203125 
z
" id="TimesNewRomanPSMT-49"/>
      </defs>
      <g transform="translate(145.640938 453.9675)scale(0.2 -0.2)">
       <use xlink:href="#TimesNewRomanPSMT-8722"/>
       <use x="56.396484" xlink:href="#TimesNewRomanPSMT-49"/>
       <use x="106.396484" xlink:href="#TimesNewRomanPSMT-48"/>
      </g>
     </g>
    </g>
    <g id="xtick_3">
     <g id="line2d_3">
      <g>
       <use style="stroke:#000000;stroke-width:0.8;" x="250.56" xlink:href="#mb779090d40" y="433.08"/>
      </g>
     </g>
     <g id="text_3">
      <!-- 0 -->
      <g transform="translate(245.56 453.9675)scale(0.2 -0.2)">
       <use xlink:href="#TimesNewRomanPSMT-48"/>
      </g>
     </g>
    </g>
    <g id="xtick_4">
     <g id="line2d_4">
      <g>
       <use style="stroke:#000000;stroke-width:0.8;" x="339.84" xlink:href="#mb779090d40" y="433.08"/>
      </g>
     </g>
     <g id="text_4">
      <!-- 10 -->
      <g transform="translate(329.84 453.9675)scale(0.2 -0.2)">
       <use xlink:href="#TimesNewRomanPSMT-49"/>
       <use x="50" xlink:href="#TimesNewRomanPSMT-48"/>
      </g>
     </g>
    </g>
    <g id="xtick_5">
     <g id="line2d_5">
      <g>
       <use style="stroke:#000000;stroke-width:0.8;" x="429.12" xlink:href="#mb779090d40" y="433.08"/>
      </g>
     </g>
     <g id="text_5">
      <!-- 20 -->
      <g transform="translate(419.12 453.9675)scale(0.2 -0.2)">
       <use xlink:href="#TimesNewRomanPSMT-50"/>
       <use x="50" xlink:href="#TimesNewRomanPSMT-48"/>
      </g>
     </g>
    </g>
    <g id="xtick_6">
     <g id="line2d_6">
      <g>
       <use style="stroke:#000000;stroke-width:0.8;" x="518.4" xlink:href="#mb779090d40" y="433.08"/>
      </g>
     </g>
     <g id="text_6">
      <!-- 30 -->
      <defs>
       <path d="M 5.078125 53.609375 
Q 7.90625 60.296875 12.21875 63.9375 
Q 16.546875 67.578125 23 67.578125 
Q 30.953125 67.578125 35.203125 62.40625 
Q 38.421875 58.546875 38.421875 54.15625 
Q 38.421875 46.921875 29.34375 39.203125 
Q 35.453125 36.8125 38.578125 32.375 
Q 41.703125 27.9375 41.703125 21.921875 
Q 41.703125 13.328125 36.234375 7.03125 
Q 29.109375 -1.171875 15.578125 -1.171875 
Q 8.890625 -1.171875 6.46875 0.484375 
Q 4.046875 2.15625 4.046875 4.046875 
Q 4.046875 5.46875 5.1875 6.546875 
Q 6.34375 7.625 7.953125 7.625 
Q 9.1875 7.625 10.453125 7.234375 
Q 11.28125 6.984375 14.203125 5.4375 
Q 17.140625 3.90625 18.265625 3.609375 
Q 20.0625 3.078125 22.125 3.078125 
Q 27.09375 3.078125 30.78125 6.9375 
Q 34.46875 10.796875 34.46875 16.0625 
Q 34.46875 19.921875 32.765625 23.578125 
Q 31.5 26.3125 29.984375 27.734375 
Q 27.875 29.6875 24.21875 31.265625 
Q 20.5625 32.859375 16.75 32.859375 
L 15.1875 32.859375 
L 15.1875 34.328125 
Q 19.046875 34.8125 22.921875 37.109375 
Q 26.8125 39.40625 28.5625 42.625 
Q 30.328125 45.84375 30.328125 49.703125 
Q 30.328125 54.734375 27.171875 57.828125 
Q 24.03125 60.9375 19.34375 60.9375 
Q 11.765625 60.9375 6.6875 52.828125 
z
" id="TimesNewRomanPSMT-51"/>
      </defs>
      <g transform="translate(508.4 453.9675)scale(0.2 -0.2)">
       <use xlink:href="#TimesNewRomanPSMT-51"/>
       <use x="50" xlink:href="#TimesNewRomanPSMT-48"/>
      </g>
     </g>
    </g>
    <g id="text_7">
     <!-- x -->
     <defs>
      <path d="M 1.3125 44.734375 
L 22.359375 44.734375 
L 22.359375 42.921875 
Q 20.359375 42.921875 19.546875 42.234375 
Q 18.75 41.546875 18.75 40.4375 
Q 18.75 39.265625 20.453125 36.8125 
Q 21 36.03125 22.078125 34.375 
L 25.25 29.296875 
L 28.90625 34.375 
Q 32.421875 39.203125 32.421875 40.484375 
Q 32.421875 41.5 31.59375 42.203125 
Q 30.765625 42.921875 28.90625 42.921875 
L 28.90625 44.734375 
L 44.046875 44.734375 
L 44.046875 42.921875 
Q 41.65625 42.78125 39.890625 41.609375 
Q 37.5 39.9375 33.34375 34.375 
L 27.25 26.21875 
L 38.375 10.203125 
Q 42.484375 4.296875 44.234375 3.09375 
Q 46 1.90625 48.78125 1.765625 
L 48.78125 0 
L 27.6875 0 
L 27.6875 1.765625 
Q 29.890625 1.765625 31.109375 2.734375 
Q 32.03125 3.421875 32.03125 4.546875 
Q 32.03125 5.671875 28.90625 10.203125 
L 22.359375 19.78125 
L 15.1875 10.203125 
Q 11.859375 5.765625 11.859375 4.9375 
Q 11.859375 3.765625 12.953125 2.8125 
Q 14.0625 1.859375 16.265625 1.765625 
L 16.265625 0 
L 1.65625 0 
L 1.65625 1.765625 
Q 3.421875 2 4.734375 2.984375 
Q 6.59375 4.390625 10.984375 10.203125 
L 20.359375 22.65625 
L 11.859375 34.96875 
Q 8.25 40.234375 6.265625 41.578125 
Q 4.296875 42.921875 1.3125 42.921875 
z
" id="TimesNewRomanPSMT-120"/>
     </defs>
     <g transform="translate(290.2 476.133125)scale(0.2 -0.2)">
      <use xlink:href="#TimesNewRomanPSMT-120"/>
     </g>
    </g>
   </g>
   <g id="matplotlib.axis_2">
    <g id="ytick_1">
     <g id="line2d_7">
      <defs>
       <path d="M 0 0 
L -3.5 0 
" id="ma9241fb7dc" style="stroke:#000000;stroke-width:0.8;"/>
      </defs>
      <g>
       <use style="stroke:#000000;stroke-width:0.8;" x="72" xlink:href="#ma9241fb7dc" y="433.08"/>
      </g>
     </g>
     <g id="text_8">
      <!-- −20 -->
      <g transform="translate(33.721875 440.02375)scale(0.2 -0.2)">
       <use xlink:href="#TimesNewRomanPSMT-8722"/>
       <use x="56.396484" xlink:href="#TimesNewRomanPSMT-50"/>
       <use x="106.396484" xlink:href="#TimesNewRomanPSMT-48"/>
      </g>
     </g>
    </g>
    <g id="ytick_2">
     <g id="line2d_8">
      <g>
       <use style="stroke:#000000;stroke-width:0.8;" x="72" xlink:href="#ma9241fb7dc" y="388.44"/>
      </g>
     </g>
     <g id="text_9">
      <!-- −15 -->
      <defs>
       <path d="M 43.40625 66.21875 
L 39.59375 57.90625 
L 19.671875 57.90625 
L 15.328125 49.03125 
Q 28.265625 47.125 35.84375 39.40625 
Q 42.328125 32.765625 42.328125 23.78125 
Q 42.328125 18.5625 40.203125 14.109375 
Q 38.09375 9.671875 34.859375 6.546875 
Q 31.640625 3.421875 27.6875 1.515625 
Q 22.078125 -1.171875 16.15625 -1.171875 
Q 10.203125 -1.171875 7.484375 0.84375 
Q 4.78125 2.875 4.78125 5.328125 
Q 4.78125 6.6875 5.90625 7.734375 
Q 7.03125 8.796875 8.734375 8.796875 
Q 10.015625 8.796875 10.96875 8.40625 
Q 11.921875 8.015625 14.203125 6.390625 
Q 17.875 3.859375 21.625 3.859375 
Q 27.34375 3.859375 31.65625 8.171875 
Q 35.984375 12.5 35.984375 18.703125 
Q 35.984375 24.703125 32.125 29.90625 
Q 28.265625 35.109375 21.484375 37.9375 
Q 16.15625 40.140625 6.984375 40.484375 
L 19.671875 66.21875 
z
" id="TimesNewRomanPSMT-53"/>
      </defs>
      <g transform="translate(33.721875 395.38375)scale(0.2 -0.2)">
       <use xlink:href="#TimesNewRomanPSMT-8722"/>
       <use x="56.396484" xlink:href="#TimesNewRomanPSMT-49"/>
       <use x="106.396484" xlink:href="#TimesNewRomanPSMT-53"/>
      </g>
     </g>
    </g>
    <g id="ytick_3">
     <g id="line2d_9">
      <g>
       <use style="stroke:#000000;stroke-width:0.8;" x="72" xlink:href="#ma9241fb7dc" y="343.8"/>
      </g>
     </g>
     <g id="text_10">
      <!-- −10 -->
      <g transform="translate(33.721875 350.74375)scale(0.2 -0.2)">
       <use xlink:href="#TimesNewRomanPSMT-8722"/>
       <use x="56.396484" xlink:href="#TimesNewRomanPSMT-49"/>
       <use x="106.396484" xlink:href="#TimesNewRomanPSMT-48"/>
      </g>
     </g>
    </g>
    <g id="ytick_4">
     <g id="line2d_10">
      <g>
       <use style="stroke:#000000;stroke-width:0.8;" x="72" xlink:href="#ma9241fb7dc" y="299.16"/>
      </g>
     </g>
     <g id="text_11">
      <!-- −5 -->
      <g transform="translate(43.721875 306.10375)scale(0.2 -0.2)">
       <use xlink:href="#TimesNewRomanPSMT-8722"/>
       <use x="56.396484" xlink:href="#TimesNewRomanPSMT-53"/>
      </g>
     </g>
    </g>
    <g id="ytick_5">
     <g id="line2d_11">
      <g>
       <use style="stroke:#000000;stroke-width:0.8;" x="72" xlink:href="#ma9241fb7dc" y="254.52"/>
      </g>
     </g>
     <g id="text_12">
      <!-- 0 -->
      <g transform="translate(55 261.46375)scale(0.2 -0.2)">
       <use xlink:href="#TimesNewRomanPSMT-48"/>
      </g>
     </g>
    </g>
    <g id="ytick_6">
     <g id="line2d_12">
      <g>
       <use style="stroke:#000000;stroke-width:0.8;" x="72" xlink:href="#ma9241fb7dc" y="209.88"/>
      </g>
     </g>
     <g id="text_13">
      <!-- 5 -->
      <g transform="translate(55 216.82375)scale(0.2 -0.2)">
       <use xlink:href="#TimesNewRomanPSMT-53"/>
      </g>
     </g>
    </g>
    <g id="ytick_7">
     <g id="line2d_13">
      <g>
       <use style="stroke:#000000;stroke-width:0.8;" x="72" xlink:href="#ma9241fb7dc" y="165.24"/>
      </g>
     </g>
     <g id="text_14">
      <!-- 10 -->
      <g transform="translate(45 172.18375)scale(0.2 -0.2)">
       <use xlink:href="#TimesNewRomanPSMT-49"/>
       <use x="50" xlink:href="#TimesNewRomanPSMT-48"/>
      </g>
     </g>
    </g>
    <g id="ytick_8">
     <g id="line2d_14">
      <g>
       <use style="stroke:#000000;stroke-width:0.8;" x="72" xlink:href="#ma9241fb7dc" y="120.6"/>
      </g>
     </g>
     <g id="text_15">
      <!-- 15 -->
      <g transform="translate(45 127.54375)scale(0.2 -0.2)">
       <use xlink:href="#TimesNewRomanPSMT-49"/>
       <use x="50" xlink:href="#TimesNewRomanPSMT-53"/>
      </g>
     </g>
    </g>
    <g id="ytick_9">
     <g id="line2d_15">
      <g>
       <use style="stroke:#000000;stroke-width:0.8;" x="72" xlink:href="#ma9241fb7dc" y="75.96"/>
      </g>
     </g>
     <g id="text_16">
      <!-- 20 -->
      <g transform="translate(45 82.90375)scale(0.2 -0.2)">
       <use xlink:href="#TimesNewRomanPSMT-50"/>
       <use x="50" xlink:href="#TimesNewRomanPSMT-48"/>
      </g>
     </g>
    </g>
    <g id="text_17">
     <!-- y -->
     <defs>
      <path d="M 0.59375 44.734375 
L 21.4375 44.734375 
L 21.4375 42.921875 
L 20.40625 42.921875 
Q 18.21875 42.921875 17.109375 41.96875 
Q 16.015625 41.015625 16.015625 39.59375 
Q 16.015625 37.703125 17.625 34.328125 
L 28.515625 11.765625 
L 38.53125 36.46875 
Q 39.359375 38.484375 39.359375 40.4375 
Q 39.359375 41.3125 39.015625 41.75 
Q 38.625 42.28125 37.796875 42.59375 
Q 36.96875 42.921875 34.859375 42.921875 
L 34.859375 44.734375 
L 49.421875 44.734375 
L 49.421875 42.921875 
Q 47.609375 42.71875 46.625 42.125 
Q 45.65625 41.546875 44.484375 39.9375 
Q 44.046875 39.265625 42.828125 36.1875 
L 24.609375 -8.453125 
Q 21.96875 -14.9375 17.6875 -18.25 
Q 13.421875 -21.578125 9.46875 -21.578125 
Q 6.59375 -21.578125 4.734375 -19.921875 
Q 2.875 -18.265625 2.875 -16.109375 
Q 2.875 -14.0625 4.21875 -12.8125 
Q 5.5625 -11.578125 7.90625 -11.578125 
Q 9.515625 -11.578125 12.3125 -12.640625 
Q 14.265625 -13.375 14.75 -13.375 
Q 16.21875 -13.375 17.9375 -11.859375 
Q 19.671875 -10.359375 21.4375 -6 
L 24.609375 1.765625 
L 8.546875 35.5 
Q 7.8125 37.015625 6.203125 39.265625 
Q 4.984375 40.96875 4.203125 41.546875 
Q 3.078125 42.328125 0.59375 42.921875 
z
" id="TimesNewRomanPSMT-121"/>
     </defs>
     <g transform="translate(25.40625 259.52)rotate(-90)scale(0.2 -0.2)">
      <use xlink:href="#TimesNewRomanPSMT-121"/>
     </g>
    </g>
   </g>
   <g id="line2d_16">
    <path clip-path="url(#p4b59a0402f)" d="M 72 254.52 
L 164.625501 235.858254 
L 189.249524 231.106701 
L 202.368165 228.779192 
L 211.242024 227.40182 
L 218.419769 226.500973 
L 224.466244 225.976155 
L 229.163631 225.779688 
L 233.378477 225.812791 
L 237.207269 226.060416 
L 240.71363 226.511935 
L 243.938802 227.158776 
L 246.908381 227.992831 
L 249.636874 229.005354 
L 252.130908 230.186176 
L 254.391629 231.523141 
L 256.416559 233.001728 
L 258.201126 234.604827 
L 259.73995 236.312656 
L 261.027973 238.102819 
L 262.061451 239.950515 
L 262.668477 241.357947 
L 262.668477 241.357947 
" style="fill:none;stroke:#0000ff;stroke-linecap:square;stroke-width:1.5;"/>
   </g>
   <g id="line2d_17">
    <path clip-path="url(#p4b59a0402f)" d="M 72 254.52 
L 156.017945 235.231012 
L 182.268722 229.42052 
L 196.457561 226.491067 
L 206.13372 224.696175 
L 214.007141 223.454658 
L 219.980951 222.714653 
L 225.260571 222.263844 
L 230.013168 222.071243 
L 234.350371 222.117038 
L 238.347257 222.387992 
L 242.053956 222.874551 
L 245.503063 223.568946 
L 248.714574 224.463881 
L 251.699312 225.551603 
L 254.461411 226.823222 
L 257.000179 228.268216 
L 259.035282 229.665024 
L 260.892239 231.175243 
L 262.566233 232.787709 
L 264.052194 234.489837 
L 265.345228 236.267633 
L 266.441007 238.105754 
L 267.33613 239.987598 
L 268.028454 241.895448 
L 268.57068 244.083736 
L 268.849376 246.252681 
L 268.870142 248.372696 
L 268.642455 250.414159 
L 268.316647 251.876241 
L 268.316647 251.876241 
" style="fill:none;stroke:#0000ff;stroke-linecap:square;stroke-width:1.5;"/>
   </g>
   <g id="line2d_18">
    <path clip-path="url(#p4b59a0402f)" d="M 72 254.52 
L 147.939424 234.92401 
L 173.744352 228.461437 
L 189.380354 224.752108 
L 200.051413 222.426156 
L 208.741654 220.754044 
L 215.343343 219.68884 
L 221.188453 218.952179 
L 226.464163 218.504022 
L 231.296849 218.318751 
L 235.772907 218.379583 
L 239.951456 218.675111 
L 243.872429 219.197057 
L 247.561926 219.938753 
L 250.613078 220.763199 
L 253.50517 221.747013 
L 256.240634 222.885582 
L 258.819266 224.173662 
L 261.238854 225.605207 
L 263.495693 227.173252 
L 265.585026 228.86982 
L 267.501419 230.68587 
L 269.239089 232.61126 
L 270.7922 234.634745 
L 272.15513 236.743997 
L 273.322707 238.925636 
L 274.29043 241.165299 
L 275.054672 243.44771 
L 275.612858 245.756784 
L 275.963635 248.075739 
L 276.107018 250.387233 
L 276.044521 252.67351 
L 275.77927 254.916573 
L 275.316093 257.098359 
L 274.661592 259.200942 
L 273.824191 261.206737 
L 272.814161 263.098725 
L 271.643611 264.860678 
L 270.326461 266.477405 
L 268.878372 267.934985 
L 267.316654 269.221018 
L 265.660126 270.324862 
L 263.928952 271.237864 
L 262.144427 271.953586 
L 260.328733 272.467999 
L 258.504649 272.779664 
L 256.695233 272.889869 
L 254.923461 272.802735 
L 252.973513 272.47063 
L 252.502111 272.350431 
L 252.502111 272.350431 
" style="fill:none;stroke:#0000ff;stroke-linecap:square;stroke-width:1.5;"/>
   </g>
   <g id="line2d_19">
    <path clip-path="url(#p4b59a0402f)" d="M 72 254.52 
L 140.350884 234.908432 
L 167.200043 227.405723 
L 183.682295 223.01377 
L 195.022397 220.203593 
L 204.312603 218.129242 
L 211.404592 216.755625 
L 217.711142 215.745187 
L 223.428739 215.050419 
L 228.69163 214.64064 
L 233.592995 214.495759 
L 238.197938 214.602406 
L 242.551793 214.951446 
L 246.180141 215.450499 
L 249.654304 216.12664 
L 252.983657 216.976845 
L 256.173892 217.99822 
L 259.227823 219.187781 
L 262.146033 220.542302 
L 264.927381 222.058209 
L 267.569422 223.731517 
L 270.068755 225.557805 
L 272.421304 227.532216 
L 274.622562 229.649486 
L 276.667789 231.904005 
L 278.552178 234.289892 
L 280.270983 236.801101 
L 281.819625 239.431543 
L 283.193763 242.17524 
L 284.389335 245.026498 
L 285.402568 247.980109 
L 286.229956 251.03159 
L 286.8682 254.177451 
L 287.314103 257.415518 
L 287.564414 260.745318 
L 287.615618 264.168532 
L 287.463637 267.68957 
L 287.103446 271.316274 
L 286.528545 275.060839 
L 285.73026 278.941011 
L 284.696783 282.981707 
L 283.206538 287.840773 
L 281.352951 293.026561 
L 279.084951 298.641758 
L 276.32636 304.834811 
L 272.961376 311.824751 
L 268.809189 319.944792 
L 262.82509 331.101228 
L 254.720249 345.692914 
L 241.340947 369.237437 
L 218.179261 409.49351 
L 162.956236 505 
L 162.956236 505 
" style="fill:none;stroke:#ff0000;stroke-linecap:square;stroke-width:1.5;"/>
   </g>
   <g id="line2d_20">
    <path clip-path="url(#p4b59a0402f)" d="M 72 254.52 
L 136.315359 234.190316 
L 162.895216 226.005503 
L 179.59598 221.088698 
L 191.256617 217.876736 
L 200.912039 215.453435 
L 208.344853 213.804587 
L 215.00023 212.545225 
L 221.072814 211.623103 
L 226.697465 211.004062 
L 231.969307 210.665567 
L 236.956171 210.592689 
L 241.124458 210.738934 
L 245.135633 211.076401 
L 249.007213 211.60192 
L 252.751999 212.313236 
L 256.37917 213.208718 
L 259.895135 214.287172 
L 263.304207 215.547726 
L 266.609161 216.989784 
L 269.811684 218.613049 
L 272.912771 220.417588 
L 275.913057 222.403967 
L 278.813119 224.573444 
L 281.61375 226.928227 
L 284.316218 229.471825 
L 286.922511 232.209489 
L 289.435598 235.148789 
L 291.8597 238.300355 
L 294.200597 241.678856 
L 296.465991 245.304284 
L 298.665973 249.203692 
L 300.813619 253.41358 
L 303.225877 258.669061 
L 305.62541 264.497568 
L 308.057729 271.046352 
L 310.586231 278.530969 
L 313.302104 287.275571 
L 316.342264 297.785676 
L 320.425961 312.77108 
L 325.755694 333.225141 
L 334.594053 368.141541 
L 353.347493 443.370474 
L 368.647752 505 
L 368.647752 505 
" style="fill:none;stroke:#ff0000;stroke-linecap:square;stroke-width:1.5;"/>
   </g>
   <g id="line2d_21">
    <path clip-path="url(#p4b59a0402f)" d="M 72 254.52 
L 129.662701 234.57198 
L 156.926117 225.361138 
L 174.257222 219.739576 
L 186.44949 216.012238 
L 196.602516 213.150655 
L 204.455082 211.159071 
L 211.515406 209.590066 
L 217.984199 208.383995 
L 224.002065 207.501416 
L 229.66958 206.91606 
L 234.399234 206.633793 
L 238.953518 206.557754 
L 243.360663 206.68261 
L 247.642603 207.004897 
L 251.816553 207.522574 
L 255.896215 208.234719 
L 259.892744 209.141363 
L 263.815539 210.243417 
L 267.672922 211.542701 
L 271.472741 213.042053 
L 275.222939 214.745545 
L 278.932106 216.658802 
L 282.610067 218.789446 
L 286.268519 221.147712 
L 289.921778 223.74727 
L 293.587687 226.606341 
L 297.28878 229.749214 
L 301.053821 233.208349 
L 305.483125 237.605478 
L 310.118836 242.563449 
L 315.063446 248.211765 
L 320.46244 254.739826 
L 326.529016 262.43221 
L 333.588554 271.732087 
L 343.381393 285.034887 
L 356.451119 303.190184 
L 378.340304 334.031148 
L 424.477058 399.524183 
L 498.61219 505 
L 498.61219 505 
" style="fill:none;stroke:#ff0000;stroke-linecap:square;stroke-width:1.5;"/>
   </g>
   <g id="line2d_22">
    <path clip-path="url(#p4b59a0402f)" d="M 72 254.52 
L 126.443145 234.040754 
L 153.217444 224.206207 
L 169.056104 218.600051 
L 181.719934 214.341016 
L 191.224885 211.353472 
L 199.583606 208.938959 
L 207.109734 206.989946 
L 214.018197 205.43584 
L 220.460677 204.229491 
L 226.546848 203.339136 
L 231.644152 202.8023 
L 236.572392 202.48122 
L 241.364424 202.369299 
L 246.04678 202.462316 
L 250.641389 202.757924 
L 255.166937 203.255346 
L 259.639985 203.955211 
L 264.075933 204.859524 
L 268.489908 205.971758 
L 272.89762 207.297075 
L 277.316258 208.842687 
L 281.765479 210.618398 
L 286.268562 212.637356 
L 290.853848 214.917118 
L 295.556581 217.481123 
L 300.421399 220.360759 
L 306.25417 224.093178 
L 312.489403 228.381796 
L 319.28778 233.354096 
L 326.88028 239.198557 
L 335.610965 246.202282 
L 346.015653 254.820184 
L 360.844232 267.410378 
L 381.285805 285.068717 
L 417.088878 316.320422 
L 499.128781 388.294966 
L 577 456.695802 
L 577 456.695802 
" style="fill:none;stroke:#ff0000;stroke-linecap:square;stroke-width:1.5;"/>
   </g>
   <g id="line2d_23">
    <path clip-path="url(#p4b59a0402f)" d="M 72 254.52 
L 120.558093 234.746139 
L 145.670476 224.728785 
L 162.368776 218.273983 
L 175.733342 213.334654 
L 185.773962 209.836126 
L 194.613191 206.972236 
L 202.58263 204.618614 
L 209.910579 202.692977 
L 216.759222 201.139837 
L 223.246952 199.921363 
L 228.697874 199.109204 
L 233.986835 198.521437 
L 239.151337 198.149792 
L 244.222614 197.988836 
L 249.227534 198.035419 
L 254.190123 198.288337 
L 259.132884 198.748172 
L 264.077991 199.417279 
L 269.048464 200.299935 
L 274.0694 201.402645 
L 279.169365 202.734647 
L 284.382051 204.308656 
L 289.748378 206.14194 
L 295.319261 208.257851 
L 301.159404 210.688029 
L 308.272314 213.906212 
L 316.01714 217.682887 
L 324.63466 222.152029 
L 334.478088 227.515705 
L 346.08734 234.089411 
L 362.361269 243.586186 
L 384.224222 256.621868 
L 420.900782 278.787678 
L 497.764702 325.573101 
L 577 373.900705 
L 577 373.900705 
" style="fill:none;stroke:#008000;stroke-linecap:square;stroke-width:1.5;"/>
   </g>
   <g id="line2d_24">
    <path clip-path="url(#p4b59a0402f)" d="M 72 254.52 
L 117.968363 234.35223 
L 142.478194 223.822098 
L 159.061105 216.914551 
L 172.49815 211.553972 
L 182.689104 207.708454 
L 191.728268 204.520414 
L 199.932124 201.861815 
L 207.521405 199.646839 
L 214.655075 197.816845 
L 220.616704 196.499212 
L 226.38126 195.425917 
L 231.99817 194.583106 
L 237.508528 193.96096 
L 242.947638 193.552811 
L 248.347019 193.354559 
L 253.736107 193.364314 
L 259.143786 193.58224 
L 264.59987 194.010573 
L 270.136663 194.653815 
L 275.790724 195.519125 
L 281.60499 196.616966 
L 287.631476 197.962057 
L 293.934882 199.574785 
L 301.584596 201.782144 
L 309.868233 204.435814 
L 319.01392 207.623323 
L 329.349769 211.475598 
L 341.365851 216.194072 
L 355.828567 222.100732 
L 376.638014 230.855371 
L 405.594843 243.286896 
L 456.856868 265.55926 
L 577 318.05834 
L 577 318.05834 
" style="fill:none;stroke:#008000;stroke-linecap:square;stroke-width:1.5;"/>
   </g>
   <g id="line2d_25">
    <path clip-path="url(#p4b59a0402f)" d="M 72 254.52 
L 112.727811 235.325721 
L 137.413501 223.916284 
L 154.265001 216.352072 
L 168.008444 210.42656 
L 178.485125 206.135385 
L 187.816983 202.541304 
L 196.319645 199.50659 
L 204.215166 196.938005 
L 211.665066 194.77113 
L 217.914243 193.168812 
L 223.979305 191.817589 
L 229.912822 190.70148 
L 235.759514 189.808852 
L 241.558889 189.131469 
L 247.347402 188.663869 
L 253.160348 188.402971 
L 259.033668 188.347911 
L 265.005795 188.500048 
L 271.119728 188.863183 
L 277.425499 189.443992 
L 283.983309 190.252753 
L 290.867698 191.304438 
L 299.258121 192.831563 
L 308.387811 194.750496 
L 318.519002 197.130476 
L 330.029806 200.076516 
L 343.487208 203.752037 
L 362.08377 209.093885 
L 386.50834 216.368913 
L 425.974408 228.402825 
L 493.243748 249.1769 
L 577 275.160201 
L 577 275.160201 
" style="fill:none;stroke:#008000;stroke-linecap:square;stroke-width:1.5;"/>
   </g>
   <g id="line2d_26">
    <path clip-path="url(#p4b59a0402f)" d="M 72 254.52 
L 110.633691 235.034097 
L 134.638189 223.165621 
L 151.284789 215.170821 
L 165.017814 208.829169 
L 175.580531 204.1855 
L 185.056905 200.254751 
L 193.746672 196.896946 
L 201.863487 194.016118 
L 209.564987 191.545072 
L 216.058402 189.681129 
L 222.390946 188.070736 
L 228.617033 186.696317 
L 234.784237 185.544716 
L 240.935964 184.606236 
L 247.113741 183.873989 
L 253.359335 183.343495 
L 259.716894 183.012496 
L 266.235304 182.880962 
L 272.970971 182.951298 
L 279.991333 183.228801 
L 287.379525 183.722417 
L 296.409995 184.569147 
L 306.268444 185.747914 
L 317.246172 187.30748 
L 329.76373 189.323553 
L 344.453169 191.91597 
L 364.83914 195.770327 
L 391.749434 201.1106 
L 435.523125 210.068141 
L 510.905998 225.748529 
L 577 239.570647 
L 577 239.570647 
" style="fill:none;stroke:#008000;stroke-linecap:square;stroke-width:1.5;"/>
   </g>
   <g id="line2d_27">
    <path clip-path="url(#p4b59a0402f)" d="M 72 254.52 
L 108.695861 234.764238 
L 132.024286 222.458616 
L 148.443884 214.044787 
L 160.720175 207.976545 
L 171.498657 202.875982 
L 181.208226 198.522353 
L 190.145796 194.767117 
L 198.524878 191.507455 
L 205.524522 189.004008 
L 212.302425 186.788188 
L 218.927348 184.832812 
L 225.457944 183.117032 
L 231.946278 181.624769 
L 238.440693 180.343608 
L 244.988337 179.264033 
L 251.637568 178.37893 
L 258.440475 177.683285 
L 265.455738 177.17408 
L 272.752128 176.850376 
L 280.41304 176.713606 
L 288.542668 176.768143 
L 298.580976 177.075533 
L 309.677137 177.664879 
L 322.213813 178.571395 
L 336.755406 179.852825 
L 354.172575 181.6049 
L 379.006692 184.347044 
L 413.031966 188.34155 
L 471.62328 195.472508 
L 577 208.518516 
L 577 208.518516 
" style="fill:none;stroke:#008000;stroke-linecap:square;stroke-width:1.5;"/>
   </g>
   <g id="line2d_28">
    <path clip-path="url(#p4b59a0402f)" d="M 72 254.52 
L 104.247917 236.017787 
L 127.548383 222.902995 
L 144.076476 213.855978 
L 156.50339 207.282995 
L 167.463497 201.719351 
L 177.376812 196.934236 
L 186.536478 192.770975 
L 195.155159 189.120091 
L 202.37958 186.2837 
L 209.397983 183.740268 
L 216.281391 181.459669 
L 223.091414 179.418314 
L 229.88384 177.597474 
L 236.711646 175.982079 
L 243.627736 174.559879 
L 250.687675 173.32082 
L 257.95266 172.256637 
L 265.493042 171.3606 
L 273.392777 170.627413 
L 281.75538 170.05326 
L 292.049649 169.589229 
L 303.383313 169.330699 
L 316.124086 169.283534 
L 330.808052 169.462034 
L 348.251283 169.894467 
L 372.834205 170.751913 
L 405.948339 172.149109 
L 461.43824 174.748589 
L 577 180.44928 
L 577 180.44928 
" style="fill:none;stroke:#008000;stroke-linecap:square;stroke-width:1.5;"/>
   </g>
   <g id="patch_3">
    <path d="M 72 433.08 
L 72 75.96 
" style="fill:none;stroke:#000000;stroke-linecap:square;stroke-linejoin:miter;stroke-width:0.8;"/>
   </g>
   <g id="patch_4">
    <path d="M 518.4 433.08 
L 518.4 75.96 
" style="fill:none;stroke:#000000;stroke-linecap:square;stroke-linejoin:miter;stroke-width:0.8;"/>
   </g>
   <g id="patch_5">
    <path d="M 72 433.08 
L 518.4 433.08 
" style="fill:none;stroke:#000000;stroke-linecap:square;stroke-linejoin:miter;stroke-width:0.8;"/>
   </g>
   <g id="patch_6">
    <path d="M 72 75.96 
L 518.4 75.96 
" style="fill:none;stroke:#000000;stroke-linecap:square;stroke-linejoin:miter;stroke-width:0.8;"/>
   </g>
  </g>
 </g>
 <defs>
  <clipPath id="p4b59a0402f">
   <rect height="357.12" width="446.4" x="72" y="75.96"/>
  </clipPath>
 </defs>
</svg>
